{"title":"Unfinished.Business.2015.1080p.BluRay.x264-GECKOS[rarbg]","uid":11972840,"size":7047550022,"categoryP":"video","categoryS":"hd___movies","magnet":"?xt=urn:btih:90224fbe1392993c4faa11a0550d5f39868b0be3&amp;dn=Unfinished.Business.2015.1080p.BluRay.x264-GECKOS%5Brarbg%5D&amp;tr=udp%3A%2F%2Ftracker.openbittorrent.com%3A80&amp;tr=udp%3A%2F%2Fopen.demonii.com%3A1337&amp;tr=udp%3A%2F%2Ftracker.coppersurfer.tk%3A6969&amp;tr=udp%3A%2F%2Fexodus.desync.com%3A6969","seeders":1,"leechers":0,"uploader":"vickey1992","files":6,"time":1432899606,"description":"Video\nID                                       : 1\nFormat                                   : AVC\nFormat/Info                              : Advanced Video Codec\nFormat profile                           : &lt;a class=&quot;__cf_email__&quot; href=&quot;/cdn-cgi/l/email-protection&quot; data-cfemail=&quot;6921000e0129255d4758&quot;&gt;[email&amp;#160;protected]&lt;/a&gt;&lt;script data-cfhash='f9e31' type=&quot;text/javascript&quot;&gt;\n/* &lt;![CDATA[ */!function(){try{var t=&quot;currentScript&quot;in document?document.currentScript:function(){for(var t=document.getElementsByTagName(&quot;script&quot;),e=t.length;e--;)if(t[e].getAttribute(&quot;data-cfhash&quot;))return t[e]}();if(t&amp;&amp;t.previousSibling){var e,r,n,i,c=t.previousSibling,a=c.getAttribute(&quot;data-cfemail&quot;);if(a){for(e=&quot;&quot;,r=parseInt(a.substr(0,2),16),n=2;a.length-n;n+=2)i=parseInt(a.substr(n,2),16)^r,e+=String.fromCharCode(i);e=document.createTextNode(e),c.parentNode.replaceChild(e,c)}t.parentNode.removeChild(t);}}catch(u){}}()/* ]]&gt; */&lt;/script&gt;\nFormat settings, CABAC                   : Yes\nFormat settings, ReFrames                : 5 frames\nCodec ID                                 : V_MPEG4/ISO/AVC\nDuration                                 : 1h 30mn\nBit rate                                 : 8 810 Kbps\nWidth                                    : 1 920 pixels\nHeight                                   : 800 pixels\nDisplay aspect ratio                     : 2.40:1\nFrame rate mode                          : Constant\nFrame rate                               : 23.976 fps\nColor space                              : YUV\nChroma subsampling                       : 4:2:0\nBit depth                                : 8 bits\nScan type                                : Progressive\nBits/(Pixel*Frame)                       : 0.239\nStream size                              : 5.46 GiB (83%)\nWriting library                          : x264 core 144 r2525 40bb568\nEncoding settings                        : cabac=1 / ref=5 / deblock=1:0:0 / analyse=0x3:0x133 / me=umh / subme=7 / psy=1 / psy_rd=1.00:0.00 / mixed_ref=1 / me_range=16 / chroma_me=1 / trellis=1 / 8x8dct=1 / cqm=0 / deadzone=21,11 / fast_pskip=0 / chroma_qp_offset=-2 / threads=60 / lookahead_threads=6 / sliced_threads=0 / nr=0 / decimate=1 / interlaced=0 / bluray_compat=0 / constrained_intra=0 / bframes=3 / b_pyramid=2 / b_adapt=1 / b_bias=0 / direct=1 / weightb=1 / open_gop=0 / weightp=2 / keyint=250 / keyint_min=23 / scenecut=40 / intra_refresh=0 / rc_lookahead=40 / rc=2pass / mbtree=1 / bitrate=8810 / ratetol=1.0 / qcomp=0.60 / qpmin=0 / qpmax=69 / qpstep=4 / cplxblur=20.0 / qblur=0.5 / ip_ratio=1.40 / aq=1:1.00\nLanguage                                 : English\nDefault                                  : Yes\nForced                                   : No\n\nAudio\nID                                       : 2\nFormat                                   : DTS\nFormat/Info                              : Digital Theater Systems\nMode                                     : 16\nFormat settings, Endianness              : Big\nCodec ID                                 : A_DTS\nDuration                                 : 1h 30mn\nBit rate mode                            : Constant\nBit rate                                 : 1 509 Kbps\nChannel(s)                               : 6 channels\nChannel positions                        : Front: L C R, Side: L R, LFE\nSampling rate                            : 48.0 KHz\nBit depth                                : 24 bits\nCompression mode                         : Lossy\nStream size                              : 982 MiB (15%)\nLanguage                                 : English\nDefault                                  : Yes\nForced                                   : No\n\nMenu\n00:00:00.000                             : en:00:00:00.000\n00:03:12.943                             : en:00:03:12.943\n00:06:55.624                             : en:00:06:55.624\n00:10:31.297                             : en:00:10:31.297\n00:14:11.726                             : en:00:14:11.726\n00:19:54.985                             : en:00:19:54.985\n00:22:55.541                             : en:00:22:55.541\n00:27:27.729                             : en:00:27:27.729\n00:31:29.638                             : en:00:31:29.638\n00:34:04.209                             : en:00:34:04.209\n00:37:12.188                             : en:00:37:12.188\n00:41:03.628                             : en:00:41:03.628\n00:44:28.291                             : en:00:44:28.291\n00:47:20.296                             : en:00:47:20.296\n00:50:48.712                             : en:00:50:48.712\n00:55:08.096                             : en:00:55:08.096\n00:58:40.892                             : en:00:58:40.892\n01:02:32.958                             : en:01:02:32.958\n01:05:48.987                             : en:01:05:48.987\n01:08:02.078                             : en:01:08:02.078\n01:11:47.011                             : en:01:11:47.011\n01:15:24.854                             : en:01:15:24.854\n01:20:47.259                             : en:01:20:47.259\n01:24:25.060                             : en:01:24:25.060","torrent":{"xt":"urn:btih:90224fbe1392993c4faa11a0550d5f39868b0be3","amp;dn":"Unfinished.Business.2015.1080p.BluRay.x264-GECKOS%5Brarbg%5D","amp;tr":["udp%3A%2F%2Ftracker.openbittorrent.com%3A80","udp%3A%2F%2Fopen.demonii.com%3A1337","udp%3A%2F%2Ftracker.coppersurfer.tk%3A6969","udp%3A%2F%2Fexodus.desync.com%3A6969"],"infoHash":"90224fbe1392993c4faa11a0550d5f39868b0be3","infoHashBuffer":{"type":"Buffer","data":[144,34,79,190,19,146,153,60,79,170,17,160,85,13,95,57,134,139,11,227]},"announce":[],"urlList":[]}}